HIERARCHY
ROOT Hips
{
 OFFSET 0.000000 0.000000 0.000000
 CHANNELS 6 Xposition Yposition Zposition Yrotation Xrotation Zrotation
 JOINT Chest
 {
  OFFSET 0.000000 9.588913 -0.003946
  CHANNELS 3 Yrotation Xrotation Zrotation
  JOINT Chest2
  {
   OFFSET 0.000000 9.541882 0.008053
   CHANNELS 3 Yrotation Xrotation Zrotation
   JOINT Chest3
   {
    OFFSET 0.000000 9.501360 0.000000
    CHANNELS 3 Yrotation Xrotation Zrotation
    JOINT Chest4
    {
     OFFSET 0.000000 9.491660 0.000000
     CHANNELS 3 Yrotation Xrotation Zrotation
     JOINT Neck
     {
      OFFSET 0.000000 14.331917 0.000000
      CHANNELS 3 Yrotation Xrotation Zrotation
      JOINT Head
      {
       OFFSET 0.000000 8.884799 0.017034
       CHANNELS 3 Yrotation Xrotation Zrotation
       End Site
       {
        OFFSET 0.000000 16.896195 0.008993
       }
      }
     }
     JOINT RightCollar
     {
      OFFSET -2.923010 9.499495 0.000000
      CHANNELS 3 Yrotation Xrotation Zrotation
      JOINT RightShoulder
      {
       OFFSET -13.795216 0.000000 0.000000
       CHANNELS 3 Yrotation Xrotation Zrotation
       JOINT RightElbow
       {
        OFFSET -30.272209 0.000000 0.000000
        CHANNELS 3 Yrotation Xrotation Zrotation
        JOINT RightWrist
        {
         OFFSET -24.478199 0.000000 0.000000
         CHANNELS 3 Yrotation Xrotation Zrotation
         End Site
         {
          OFFSET -18.090752 0.000000 0.000000
         }
        }
       }
      }
     }
     JOINT LeftCollar
     {
      OFFSET 2.923010 9.499495 0.000000
      CHANNELS 3 Yrotation Xrotation Zrotation
      JOINT LeftShoulder
      {
       OFFSET 13.795216 0.000000 0.000000
       CHANNELS 3 Yrotation Xrotation Zrotation
       JOINT LeftElbow
       {
        OFFSET 30.272209 0.000000 0.000000
        CHANNELS 3 Yrotation Xrotation Zrotation
        JOINT LeftWrist
        {
         OFFSET 24.478199 0.000000 0.000000
         CHANNELS 3 Yrotation Xrotation Zrotation
         End Site
         {
          OFFSET 18.090752 0.000000 0.000000
         }
        }
       }
      }
     }
    }
   }
  }
 }
 JOINT RightHip
 {
  OFFSET -7.826875 0.019532 0.001973
  CHANNELS 3 Yrotation Xrotation Zrotation
  JOINT RightKnee
  {
   OFFSET 0.000000 -40.546152 -0.001885
   CHANNELS 3 Yrotation Xrotation Zrotation
   JOINT RightAnkle
   {
    OFFSET 0.000000 -39.417092 -0.003189
    CHANNELS 3 Yrotation Xrotation Zrotation
    JOINT RightToe
    {
     OFFSET 0.000000 -7.579396 17.243563
     CHANNELS 3 Yrotation Xrotation Zrotation
     End Site
     {
      OFFSET 0.000000 -1.500329 6.694466
     }
    }
   }
  }
 }
 JOINT LeftHip
 {
  OFFSET 7.826875 0.019532 0.001973
  CHANNELS 3 Yrotation Xrotation Zrotation
  JOINT LeftKnee
  {
   OFFSET 0.000000 -40.546152 -0.001885
   CHANNELS 3 Yrotation Xrotation Zrotation
   JOINT LeftAnkle
   {
    OFFSET 0.000000 -39.417092 -0.003189
    CHANNELS 3 Yrotation Xrotation Zrotation
    JOINT LeftToe
    {
     OFFSET 0.000000 -7.579396 17.243563
     CHANNELS 3 Yrotation Xrotation Zrotation
     End Site
     {
      OFFSET 0.000000 -1.500329 6.694466
     }
    }
   }
  }
 }
}
MOTION
Frames: 8
Frame Time: 0.008333
0.000000 87.345680 0.000000 0.000000 -5.767889 0.000000 0.000000 11.653876 0.000000 0.000000 -5.885988 0.000000 0.000000 -0.000000 0.000000 0.000000 -0.000000 0.000000 0.000000 12.528808 0.000000 0.000000 0.711711 0.000000 0.000000 -0.000000 0.000000 0.000000 -0.000000 0.000000 2.309063 -0.000000 0.000000 -2.309063 -0.000000 -0.000000 0.000000 -0.000000 0.000000 0.000000 0.000000 0.000000 -2.309063 0.000000 0.000000 2.309063 -0.000000 0.000000 0.000000 8.520374 0.000000 0.000000 1.905768 0.000000 -0.000000 -4.658254 0.000000 0.000000 -0.000000 0.000000 0.000000 8.520374 0.000000 0.000000 1.905768 0.000000 -0.000000 -4.658254 0.000000 0.000000 -0.000000 0.000000
-9.508025 51.035947 -15.977871 42.310788 -33.143166 -4.875429 -1.966613 15.654919 2.178148 -1.147827 8.946651 1.222878 -1.408813 11.186856 1.504784 -1.147827 8.946651 1.222878 3.648838 18.246515 -4.297602 4.925291 -6.272826 -5.475307 -0.220984 1.629316 -6.402298 -2.763456 -9.998996 69.632589 106.007482 -27.641031 34.238261 -13.890594 -1.922550 7.224132 17.102535 1.104177 -1.625916 -4.270418 -5.890500 -84.013821 -58.106452 -1.784341 -38.960329 -5.305011 6.536701 28.999412 -21.215920 -45.595824 13.163712 -121.621587 65.006870 -131.935729 -13.143768 -22.247688 9.880692 -0.194418 0.188092 -0.084499 17.234138 -49.586006 -8.559456 132.221660 65.838015 147.477638 -10.165263 -23.962917 0.671556 0.149107 -0.177038 0.071506
-9.509320 51.035233 -15.978090 42.311344 -33.136605 -4.884943 -1.985205 15.660917 2.164289 -1.157331 8.951004 1.216151 -1.420887 11.192307 1.496103 -1.157331 8.951004 1.216151 3.669566 18.236955 -4.296024 4.947633 -6.282454 -5.478778 -0.227313 1.564816 -6.392496 -2.766690 -10.552202 69.396819 106.043267 -27.948528 34.301817 -13.619126 -2.015708 7.098760 17.124669 1.092012 -1.597958 -4.265718 -5.871328 -84.028366 -58.128011 -1.803821 -38.943038 -5.308032 6.543729 28.997075 -21.228587 -45.600522 13.177404 -121.635271 65.010553 -131.946444 -13.149031 -22.246592 9.875402 -0.189502 0.187360 -0.081694 17.227414 -49.597747 -8.547925 132.223246 65.838581 147.481764 -10.167757 -23.962236 0.670849 0.145360 -0.177733 0.070550
-9.510308 51.034712 -15.978222 42.316319 -33.132374 -4.896246 -2.005661 15.667805 2.151279 -1.169578 8.955461 1.209004 -1.436409 11.197895 1.486827 -1.169577 8.955462 1.209005 3.692722 18.229715 -4.296634 4.973225 -6.289229 -5.485309 -0.216814 1.487221 -6.386556 -2.786022 -11.107302 69.174709 106.049707 -28.255550 34.394276 -13.356930 -2.109254 6.966425 17.149804 1.079995 -1.575013 -4.264740 -5.846388 -84.040036 -58.153284 -1.826506 -38.919265 -5.313101 6.550533 28.996602 -21.247145 -45.602081 13.190780 -121.638263 65.014472 -131.949956 -13.158818 -22.241513 9.875303 -0.188932 0.185933 -0.081764 17.217366 -49.606174 -8.539053 132.235781 65.841805 147.499664 -10.160202 -23.962291 0.663160 0.145681 -0.178375 0.071429
-9.511068 51.034454 -15.978107 42.324093 -33.131086 -4.909476 -2.027508 15.676878 2.140645 -1.184791 8.960339 1.201684 -1.455655 11.204018 1.477259 -1.184791 8.960340 1.201685 3.718039 18.224192 -4.300249 5.001978 -6.293787 -5.495729 -0.185540 1.392791 -6.385009 -2.817016 -11.654690 68.969103 106.024518 -28.564750 34.516166 -13.101616 -2.207383 6.840630 17.181518 1.068236 -1.560192 -4.270194 -5.820346 -84.047959 -58.179526 -1.853822 -38.888568 -5.320055 6.556568 28.998861 -21.269770 -45.599176 13.202413 -121.633568 65.017835 -131.947953 -13.164848 -22.236990 9.875725 -0.187996 0.184739 -0.082536 17.203577 -49.610233 -8.531129 132.266623 65.849415 147.539137 -10.142867 -23.965061 0.652342 0.146836 -0.177944 0.071262
-9.511936 51.034163 -15.978042 42.322664 -33.130201 -4.918530 -2.045561 15.686364 2.129907 -1.197929 8.965660 1.194669 -1.472290 11.210687 1.468122 -1.197929 8.965660 1.194669 3.741350 18.219381 -4.304856 5.028788 -6.297598 -5.506743 -0.151390 1.279484 -6.380903 -2.860306 -12.177862 68.776923 105.969333 -28.884812 34.679023 -12.840142 -2.321347 6.732198 17.216394 1.055694 -1.550947 -4.286900 -5.796363 -84.053301 -58.205663 -1.884376 -38.854231 -5.325204 6.564067 29.004355 -21.285475 -45.596592 13.211864 -121.625972 65.018818 -131.942292 -13.159061 -22.236715 9.871177 -0.183491 0.185029 -0.081751 17.197498 -49.614341 -8.521393 132.283872 65.852175 147.563784 -10.131918 -23.968152 0.647455 0.142274 -0.178250 0.068044
-9.513035 51.033741 -15.978092 42.314593 -33.128236 -4.925261 -2.058677 15.694638 2.119930 -1.207573 8.970888 1.188097 -1.484534 11.217231 1.459628 -1.207572 8.970888 1.188097 3.760426 18.215678 -4.308213 5.050631 -6.300475 -5.515306 -0.121330 1.148289 -6.374198 -2.920074 -12.660247 68.591004 105.882886 -29.233848 34.885086 -12.564266 -2.451623 6.650106 17.250910 1.041627 -1.545996 -4.313775 -5.773361 -84.055565 -58.228939 -1.915110 -38.819900 -5.331002 6.572486 29.011438 -21.297779 -45.595826 13.220356 -121.619904 65.018980 -131.937123 -13.144886 -22.239167 9.863374 -0.178550 0.185560 -0.080771 17.195285 -49.621284 -8.506653 132.283092 65.849620 147.566001 -10.126017 -23.969157 0.644181 0.138822 -0.179526 0.066051
-9.513851 51.033406 -15.978152 42.312185 -33.126836 -4.934647 -2.071601 15.703399 2.109927 -1.215843 8.975774 1.181748 -1.495050 11.223343 1.451448 -1.215842 8.975774 1.181748 3.775114 18.213367 -4.308023 5.066748 -6.302251 -5.518835 -0.082054 1.005361 -6.371215 -2.997777 -13.101520 68.408244 105.758009 -29.630359 35.124853 -12.282850 -2.583783 6.595315 17.280826 1.023927 -1.541761 -4.343727 -5.750219 -84.054846 -58.247604 -1.945489 -38.787388 -5.340005 6.579835 29.015496 -21.314271 -45.593603 13.228052 -121.615091 65.018561 -131.930890 -13.140509 -22.242097 9.858661 -0.175311 0.186249 -0.080560 17.184155 -49.627517 -8.489267 132.282914 65.848223 147.565247 -10.115624 -23.969060 0.637405 0.138957 -0.179759 0.066059
